<?xml version="1.0"?>
<svg width="100" height="100" xmlns="http://www.w3.org/2000/svg" xmlns:svg="http://www.w3.org/2000/svg" xmlns:xlink="http://www.w3.org/1999/xlink" enable-background="new 0 0 115.44 122.88" version="1.1" xml:space="preserve">
 <!-- Created with SVG-edit - https://github.com/SVG-Edit/svgedit-->
 <defs>
  <symbol clip-rule="evenodd" fill-rule="evenodd" id="svg_2" viewBox="0 0 497 511.55" xmlns="http://www.w3.org/2000/svg">
   <path d="m420.15,0l56.2,0c5.66,0 10.82,2.33 14.56,6.06c3.77,3.78 6.09,8.94 6.09,14.59l0,196.95c0,5.68 -2.32,10.85 -6.06,14.58c-3.74,3.74 -8.91,6.07 -14.59,6.07l-56.2,0c-5.66,0 -10.82,-2.33 -14.56,-6.06c-3.77,-3.78 -6.09,-8.94 -6.09,-14.59l0,-2.02c-37.28,-0.12 -74.28,1.36 -103.79,5.65c-24.73,3.61 -43.56,8.98 -51.51,16.75c-9.32,9.1 -16.24,30 -21.01,59.36c-5.08,31.24 -7.44,71.33 -7.47,116.71l1.88,0c5.65,0 10.81,2.32 14.56,6.06c3.76,3.77 6.09,8.93 6.09,14.59l0,56.19c0,5.66 -2.33,10.82 -6.06,14.56c-3.78,3.77 -8.94,6.1 -14.59,6.1l-196.95,0c-5.65,0 -10.81,-2.33 -14.56,-6.07c-3.76,-3.77 -6.09,-8.93 -6.09,-14.59l0,-56.19c0,-5.66 2.33,-10.82 6.06,-14.56c3.78,-3.77 8.94,-6.09 14.59,-6.09l2.08,0c0.1,-71.39 6.68,-135.47 20.82,-188.93c14.08,-53.2 35.71,-96.13 65.93,-125.64c31.99,-31.24 77.17,-50.84 129.53,-62.41c48.83,-10.8 104.01,-14.64 160.49,-14.49l0,-1.93c0,-5.65 2.32,-10.81 6.06,-14.56c3.77,-3.76 8.93,-6.09 14.59,-6.09zm-20.65,197.36l0,-156.56c-55.31,-0.15 -109.17,3.57 -156.56,14.05c-49.19,10.87 -91.37,29.02 -120.74,57.71c-27.73,27.08 -47.76,67.16 -61,117.2c-13.76,51.97 -20.16,114.49 -20.25,184.29l156.56,0c0.03,-46.4 2.45,-87.48 7.68,-119.63c5.38,-33.14 13.99,-57.51 26.29,-69.52c10.99,-10.73 33.31,-17.61 61.66,-21.74c30.26,-4.4 68.18,-5.92 106.36,-5.8zm-191.4,234.98c-0.46,0.07 -0.94,0.11 -1.42,0.11l-174.81,0.04c-0.58,0 -1.14,-0.06 -1.68,-0.15l-9.54,0c-0.64,0 -1.25,0.26 -1.68,0.68c-0.41,0.42 -0.68,1.02 -0.68,1.68l0,56.19c0,0.65 0.27,1.26 0.68,1.68c0.43,0.42 1.04,0.69 1.68,0.69l196.95,0c0.65,0 1.25,-0.27 1.68,-0.69c0.42,-0.42 0.68,-1.03 0.68,-1.68l0,-56.19c0,-0.66 -0.26,-1.26 -0.68,-1.68c-0.43,-0.42 -1.03,-0.68 -1.68,-0.68l-9.5,0zm209.69,-402.1c0.08,0.49 0.12,0.99 0.12,1.51l0.04,174.77c0,0.6 -0.05,1.17 -0.16,1.74l0,9.34c0,0.65 0.26,1.25 0.68,1.68c0.42,0.42 1.02,0.68 1.68,0.68l56.2,0c0.64,0 1.24,-0.27 1.67,-0.7c0.42,-0.43 0.69,-1.02 0.69,-1.66l0,-196.95c0,-0.64 -0.26,-1.25 -0.68,-1.68c-0.42,-0.41 -1.03,-0.68 -1.68,-0.68l-56.2,0c-0.66,0 -1.26,0.27 -1.68,0.68c-0.42,0.43 -0.68,1.04 -0.68,1.68l0,9.59z" fill-rule="nonzero"/>
  </symbol>
 </defs>
 <g class="layer">
  <title>Layer 1</title>
  <use fill="#b59d77" id="svg_3" stroke="#b59d77" stroke-width="19" transform="matrix(0.965796 0 0 0.965796 1.08696 1.08696)" x="0" xlink:href="#svg_2" y="0"/>
  <path d="m21.15,24.84c0,0 -10.28,22.49 -10.28,22.17c0,-0.32 5.14,9 5.14,9c0,0 8.35,-6.75 8.35,-7.07c0,-0.32 10.6,9 10.6,8.68c0,-0.32 8.35,-10.93 8.35,-11.25c0,-0.32 11.57,-3.53 11.57,-3.53c0,0 -5.78,-10.6 -5.78,-10.93c0,-0.32 -13.17,-4.5 -13.17,-4.82c0,-0.32 3.21,-6.11 3.21,-6.43c0,-0.32 -11.25,-2.25 -11.25,-2.57c0,-0.32 -6.75,6.75 -6.75,6.75z" fill="#b59d77" id="svg_8" stroke="#b59d77" transform="matrix(1 0 0 1 0 0)"/>
 </g>
</svg>