<?xml version="1.0"?>
<svg width="115.44" height="122.88" xmlns="http://www.w3.org/2000/svg" xmlns:svg="http://www.w3.org/2000/svg" enable-background="new 0 0 115.44 122.88" version="1.1" xml:space="preserve">
 <g class="layer">
  <title>Layer 1</title>
  <path d="m98.31,84.78c-2.59,12.05 -10.39,18.06 -10.39,24.09c0,6.02 2.59,12.05 10.39,12.05c7.79,0 10.39,-6.02 10.39,-12.05c0,-6.02 -7.79,-12.05 -10.39,-24.09l0,0zm-80.28,-44.67l21.38,0l-5.33,19.88l-16.01,0l-0.05,0l0,-19.88l0.01,0zm22.19,-2.99l-22.19,0l0,-4.42c0,-0.73 -0.3,-1.4 -0.78,-1.88c-0.04,-0.04 -0.08,-0.08 -0.13,-0.11c-0.47,-0.42 -1.09,-0.67 -1.76,-0.67l-11.23,0c-0.73,0 -1.39,0.3 -1.88,0.78l0,0l0,0c-0.48,0.48 -0.78,1.15 -0.78,1.88l0,35.44c0,0.73 0.3,1.4 0.78,1.88c0.04,0.04 0.08,0.08 0.13,0.11c0.47,0.42 1.09,0.67 1.76,0.67l11.23,0c0.73,0 1.39,-0.3 1.88,-0.78l0,0l0,0c0.48,-0.48 0.78,-1.15 0.78,-1.88l0,-5.16l0.05,0l15.74,0c1.38,6.2 5.33,10.54 10.39,13.08c3.61,1.82 7.79,2.71 11.98,2.7c4.18,0 8.37,-0.9 12.05,-2.66c5.36,-2.58 9.61,-6.98 11.08,-13.13l0.83,0l0,0c2.47,0.1 4.29,0.68 5.55,1.71c1.18,0.97 1.87,2.41 2.11,4.29l0,7.54c0,0.83 0.67,1.5 1.5,1.5l22.86,0c0.83,0.01 1.5,-0.66 1.5,-1.49l0,-16.33l0,0c0,-0.09 -0.01,-0.17 -0.02,-0.25c-1.1,-6.41 -3.52,-11.65 -7.42,-15.53c-3.89,-3.86 -9.21,-6.33 -16.15,-7.25c-0.11,-0.02 -0.21,-0.04 -0.33,-0.04l-17.42,0l-3.02,-10.29c-0.19,-0.65 -0.79,-1.07 -1.43,-1.07l0,0l-4.99,0l0,-11.28l12.2,0c1.79,0 3.4,-0.73 4.58,-1.9c1.18,-1.18 1.9,-2.8 1.9,-4.58c0,-1.79 -0.73,-3.4 -1.9,-4.58c-1.18,-1.18 -2.8,-1.9 -4.58,-1.9l-36.21,0c-1.79,0 -3.4,0.73 -4.58,1.9c-1.18,1.18 -1.9,2.8 -1.9,4.58c0,1.79 0.73,3.4 1.9,4.58c1.18,1.18 2.8,1.9 4.58,1.9l11.52,0l0,11.28l-5.97,0c-0.72,0 -1.32,0.51 -1.47,1.19l-2.72,10.18l0,0zm13.15,-11.37l0,-11.28l6.5,0l0,11.28l-6.5,0l0,0zm25.63,34.24l-5.83,-19.88l16.5,0c6.25,0.84 11.01,3.01 14.43,6.4c3.42,3.39 5.56,8.04 6.56,13.78l0,14.72l-19.88,0l0,-6.13c0,-0.09 -0.01,-0.17 -0.02,-0.25c-0.33,-2.66 -1.37,-4.76 -3.18,-6.25c-1.76,-1.46 -4.21,-2.27 -7.39,-2.39l-0.05,0l0,-0.01l-1.14,0l0,0.01zm-2.53,1.99c-1.17,5.35 -4.84,9.19 -9.52,11.44c-3.27,1.56 -7.02,2.36 -10.76,2.37c-3.73,0 -7.44,-0.79 -10.64,-2.39c-4.4,-2.22 -7.81,-6 -8.9,-11.42l8.91,-33.23l21.17,0l3.02,10.29l6.67,22.77c0.01,0.05 0.03,0.12 0.05,0.17l0,0zm-37.63,-57.49l36.22,0c0.96,0 1.83,0.39 2.47,1.03c0.63,0.63 1.03,1.51 1.03,2.47c0,0.96 -0.4,1.83 -1.03,2.47c-0.63,0.63 -1.51,1.03 -2.47,1.03l-36.21,0c-0.96,0 -1.83,-0.4 -2.47,-1.03c-0.63,-0.63 -1.03,-1.51 -1.03,-2.47c0,-0.96 0.4,-1.83 1.03,-2.47c0.63,-0.64 1.51,-1.03 2.46,-1.03l0,0zm-34.36,28.53l10.56,0l0,34.78l-10.56,0l0,-34.78l0,0z" fill="#b59d77" id="svg_2" stroke="#b59d77" stroke-width="2"/>
 </g>

</svg>