<?xml version="1.0"?>
<svg width="115.51000000000002" height="122.88" xmlns="http://www.w3.org/2000/svg" xmlns:svg="http://www.w3.org/2000/svg" data-name="Layer 1">
 <title>heater</title>
 <g class="layer">
  <title>Layer 1</title>
  <path d="m11.42,41.77l92.54,0a9,9 0 0 1 8.98,8.97l0,52.44a9,9 0 0 1 -8.98,8.97l-10.79,0l0,7.76a0.88,0.88 0 0 1 -0.88,0.88l-8.2,0a0.89,0.89 0 0 1 -0.89,-0.88l0,-7.72l-51.03,0l0,7.72a0.88,0.88 0 0 1 -0.88,0.88l-8.2,0a0.89,0.89 0 0 1 -0.89,-0.88l0,-7.72l-10.78,0a8.98,8.98 0 0 1 -8.98,-9.01l0,-52.44a8.98,8.98 0 0 1 8.98,-8.97zm14.61,-35.91a1.99,1.99 0 0 1 1.52,-2.56a2.53,2.53 0 0 1 3.03,1.27c2.87,7.21 0.81,12.32 -1,16.82c-1.57,3.83 -2.87,7.17 0.6,10.89a1.81,1.81 0 0 1 -0.4,2.87a2.74,2.74 0 0 1 -3.38,-0.38c-5.14,-5.46 -3.42,-9.72 -1.4,-14.7c1.6,-3.87 3.4,-8.27 1.02,-14.21zm45.29,-0.01a1.97,1.97 0 0 1 1.51,-2.55a2.53,2.53 0 0 1 3.04,1.27c2.87,7.23 0.8,12.32 -1.01,16.8c-1.56,3.83 -2.87,7.17 0.6,10.89a1.81,1.81 0 0 1 -0.4,2.87a2.72,2.72 0 0 1 -3.38,-0.36c-5.15,-5.45 -3.42,-9.71 -1.4,-14.7c1.6,-3.87 3.38,-8.27 1.03,-14.22zm15.07,0a1.97,1.97 0 0 1 1.51,-2.54a2.53,2.53 0 0 1 3.04,1.26c2.87,7.22 0.8,12.33 -1.01,16.82c-1.56,3.83 -2.87,7.17 0.6,10.89a1.81,1.81 0 0 1 -0.4,2.87a2.74,2.74 0 0 1 -3.38,-0.38c-5.14,-5.45 -3.42,-9.72 -1.4,-14.7c1.6,-3.83 3.39,-8.3 1.03,-14.22zm-45.28,0a1.97,1.97 0 0 1 1.51,-2.55a2.53,2.53 0 0 1 3.04,1.27c2.87,7.23 0.78,12.32 -1.01,16.8c-1.56,3.83 -2.87,7.17 0.6,10.89a1.81,1.81 0 0 1 -0.4,2.87a2.72,2.72 0 0 1 -3.38,-0.36c-5.14,-5.45 -3.42,-9.71 -1.4,-14.7c1.59,-3.87 3.38,-8.27 1.03,-14.22zm15.07,0a1.97,1.97 0 0 1 1.51,-2.54a2.53,2.53 0 0 1 3.04,1.26c2.87,7.22 0.8,12.33 -1.01,16.82c-1.56,3.83 -2.87,7.17 0.6,10.89a1.81,1.81 0 0 1 -0.4,2.87a2.74,2.74 0 0 1 -3.38,-0.38c-5.14,-5.45 -3.42,-9.72 -1.4,-14.7c1.6,-3.83 3.39,-8.3 1.03,-14.22zm36.36,48.19a2.65,2.65 0 0 1 5.29,0l0,46.05a2.65,2.65 0 1 1 -5.29,0l0,-46.04l0,-0.01zm-14.95,0a2.65,2.65 0 0 1 5.29,0l0,46.05a2.65,2.65 0 1 1 -5.29,0l0,-46.04l0,-0.01zm-14.95,0a2.65,2.65 0 0 1 5.29,0l0,46.05a2.65,2.65 0 1 1 -5.29,0l0,-46.04l0,-0.01zm-14.95,0a2.65,2.65 0 0 1 5.29,0l0,46.05a2.65,2.65 0 1 1 -5.29,0l0,-46.04l0,-0.01zm-14.95,0a2.64,2.64 0 0 1 5.28,0l0,46.05a2.64,2.64 0 1 1 -5.28,0l0,-46.04l0,-0.01zm-14.97,0.01a2.64,2.64 0 1 1 5.28,0l0,46.05a2.64,2.64 0 1 1 -5.28,0l0,-46.05zm86.18,-7.18l-92.5,0a3.88,3.88 0 0 0 -3.83,3.83l0,52.44a3.88,3.88 0 0 0 3.83,3.83l92.54,0a3.88,3.88 0 0 0 3.83,-3.83l0,-52.4a3.88,3.88 0 0 0 -3.83,-3.83l-0.04,-0.04z" fill="#b69d75" id="svg_1" stroke="#b59d77" stroke-width="4"/>
 </g>
</svg>