<?xml version="1.0"?>
<svg width="98.18" height="122.88" xmlns="http://www.w3.org/2000/svg" xmlns:svg="http://www.w3.org/2000/svg" enable-background="new 0 0 98.18 122.88" version="1.1" xml:space="preserve">
 <g class="layer">
  <title>Layer 1</title>
  <g id="svg_1">
   <path d="m22.76,26.13c0,-0.97 0.79,-1.75 1.76,-1.75c0.97,0 1.76,0.79 1.76,1.75l0,31.98c0,0.97 -0.79,1.75 -1.76,1.75l-20.83,0c-0.97,0.01 -1.76,-0.78 -1.76,-1.74l0,-52.19c0,-1.03 0.42,-1.97 1.11,-2.66l0.01,-0.01c0.69,-0.67 1.63,-1.09 2.67,-1.09l16.77,0c1.03,0 1.99,0.42 2.67,1.11l0,0c0.69,0.68 1.11,1.62 1.11,2.66l0,4.43c0,0.97 -0.79,1.75 -1.76,1.75c-0.97,0 -1.76,-0.79 -1.76,-1.75l0,-4.44c0,-0.07 -0.03,-0.13 -0.08,-0.19l0,0l0,0c-0.05,-0.05 -0.12,-0.08 -0.19,-0.08l-16.77,0c-0.08,0 -0.14,0.03 -0.19,0.08l-0.01,0.01c-0.05,0.05 -0.08,0.12 -0.08,0.19l0,50.43l17.32,0l0,-30.25l0,0zm-0.01,71.88l-20.62,-39.08c-0.44,-0.85 -0.12,-1.9 0.74,-2.35c0.26,-0.13 0.54,-0.2 0.81,-0.2l0,-0.01l91.24,0c0.97,0 1.76,0.79 1.76,1.75c0,0.07 0,0.13 -0.01,0.2c-0.49,20.86 -10.78,26.73 -19.44,31.67c-5.06,2.89 -9.49,5.41 -10.32,10.76l-0.01,0.05c-0.32,2.09 -0.14,4.49 0.52,7.21c0.69,2.83 1.92,6.02 3.71,9.56c0.43,0.86 0.08,1.91 -0.79,2.34c-0.25,0.12 -0.52,0.18 -0.78,0.18l-55.07,0c-0.97,0 -1.76,-0.79 -1.76,-1.75c0,-0.34 0.1,-0.65 0.27,-0.92l9.75,-19.39l0,0zm-16.16,-38.14l19.68,37.32c0.25,0.48 0.27,1.07 0.01,1.58l-8.96,17.82l49.46,0c-1.25,-2.77 -2.17,-5.36 -2.76,-7.76c-0.78,-3.19 -0.97,-6.04 -0.59,-8.55l0.01,-0.06c1.09,-7 6.21,-9.92 12.05,-13.25c7.64,-4.36 16.69,-9.52 17.62,-27.09l-86.52,0l0,-0.01zm18.13,39.87c-0.97,0 -1.76,-0.79 -1.76,-1.75c0,-0.97 0.79,-1.75 1.76,-1.75l19.2,0c0.97,0 1.76,0.79 1.76,1.75c0,0.97 -0.79,1.75 -1.76,1.75l-19.2,0l0,0zm1.54,-41.36c-0.14,0.95 -1.04,1.61 -2,1.47c-0.96,-0.14 -1.62,-1.04 -1.48,-1.99c0.28,-1.8 0.73,-3.44 1.37,-4.86c0.67,-1.49 1.53,-2.74 2.58,-3.77c3.42,-3.32 7.76,-3.24 11.91,-3.17c0.37,0.01 0.72,0.01 1.66,0.01l37.6,0c8.92,-0.06 18.8,-0.12 18.75,12.47c0,0.96 -0.78,1.74 -1.75,1.74s-1.75,-0.78 -1.75,-1.74c0.04,-9.1 -7.99,-9.04 -15.23,-8.99c-1.09,0.01 -1.06,0.02 -1.71,0.02l-35.92,0l-1.72,-0.03c-3.44,-0.06 -7.04,-0.12 -9.41,2.19c-0.74,0.72 -1.34,1.61 -1.82,2.68c-0.5,1.11 -0.87,2.44 -1.1,3.97l0,0zm-9.54,-45.49c2.73,0 4.94,2.2 4.94,4.91c0,2.72 -2.21,4.91 -4.94,4.91c-2.73,0 -4.94,-2.2 -4.94,-4.91c0,-2.72 2.22,-4.91 4.94,-4.91l0,0zm4.94,6.66c-0.97,0 -1.76,-0.79 -1.76,-1.75c0,-0.97 0.79,-1.75 1.76,-1.75l11.85,0c0.97,0 1.76,0.79 1.76,1.75c0,0.97 -0.79,1.75 -1.76,1.75l-11.85,0l0,0z" fill="#b69d75" id="svg_2" stroke="#b59d77" stroke-width="3"/>
  </g>
 </g>
</svg>